<mxfile host="65bd71144e">
    <diagram id="OoBJfY9swDVuGTMlmnDf" name="Page-1">
        <mxGraphModel dx="1568" dy="798" grid="1" gridSize="10" guides="1" tooltips="1" connect="1" arrows="1" fold="1" page="1" pageScale="1" pageWidth="827" pageHeight="1169" math="0" shadow="0">
            <root>
                <mxCell id="0"/>
                <mxCell id="1" parent="0"/>
                <mxCell id="3" value="USER&lt;br&gt;&lt;div style=&quot;text-align: justify&quot;&gt;&lt;/div&gt;" style="whiteSpace=wrap;html=1;aspect=fixed;" vertex="1" parent="1">
                    <mxGeometry x="60" y="30" width="120" height="120" as="geometry"/>
                </mxCell>
                <mxCell id="4" value="BARBERSHOP&lt;br&gt;&lt;div style=&quot;text-align: justify&quot;&gt;&lt;/div&gt;" style="whiteSpace=wrap;html=1;aspect=fixed;" vertex="1" parent="1">
                    <mxGeometry x="270" y="220" width="120" height="120" as="geometry"/>
                </mxCell>
                <mxCell id="5" value="BARBERS&lt;br&gt;&lt;div style=&quot;text-align: justify&quot;&gt;&lt;/div&gt;" style="whiteSpace=wrap;html=1;aspect=fixed;" vertex="1" parent="1">
                    <mxGeometry x="45" y="220" width="125" height="125" as="geometry"/>
                </mxCell>
                <mxCell id="6" value="&lt;div style=&quot;text-align: left&quot;&gt;&lt;span&gt;BARBER_CONFIG&lt;/span&gt;&lt;/div&gt;&lt;div style=&quot;text-align: left&quot;&gt;&lt;br&gt;&lt;/div&gt;&lt;div style=&quot;text-align: left&quot;&gt;&lt;span&gt;- ID&lt;/span&gt;&lt;/div&gt;&lt;div style=&quot;text-align: left&quot;&gt;&lt;span&gt;- USER_ID&lt;/span&gt;&lt;/div&gt;&lt;div style=&quot;text-align: left&quot;&gt;&lt;span&gt;- BARBER_ID&lt;/span&gt;&lt;/div&gt;&lt;div style=&quot;text-align: left&quot;&gt;&lt;span&gt;- EMPTY_SERVICES&lt;/span&gt;&lt;/div&gt;&lt;div style=&quot;text-align: left&quot;&gt;&lt;span&gt;- MIN_SERVICES_TIME&lt;/span&gt;&lt;/div&gt;&lt;div style=&quot;text-align: justify&quot;&gt;&lt;/div&gt;" style="whiteSpace=wrap;html=1;aspect=fixed;" vertex="1" parent="1">
                    <mxGeometry x="45" y="360" width="165" height="165" as="geometry"/>
                </mxCell>
                <mxCell id="7" value="&lt;div style=&quot;text-align: left&quot;&gt;&lt;span&gt;BARBERSHOP_CONFIG&lt;/span&gt;&lt;/div&gt;&lt;div style=&quot;text-align: left&quot;&gt;&lt;br&gt;&lt;/div&gt;&lt;div style=&quot;text-align: left&quot;&gt;&lt;span&gt;- ID&lt;/span&gt;&lt;/div&gt;&lt;div style=&quot;text-align: left&quot;&gt;&lt;span&gt;- OPEN_BARBERSHOP&lt;/span&gt;&lt;/div&gt;&lt;div style=&quot;text-align: left&quot;&gt;&lt;span&gt;- CLOSE_BARBERSHOP&lt;/span&gt;&lt;/div&gt;&lt;div style=&quot;text-align: left&quot;&gt;&lt;span&gt;- CLOSE_LUNCH&lt;/span&gt;&lt;/div&gt;&lt;div style=&quot;text-align: left&quot;&gt;&lt;span&gt;- RETURN_LUNCH&lt;/span&gt;&lt;/div&gt;&lt;div style=&quot;text-align: left&quot;&gt;&lt;span&gt;- CLOSE_TO_LUNCH&lt;/span&gt;&lt;/div&gt;&lt;div style=&quot;text-align: left&quot;&gt;&lt;span&gt;- SERVICE_COAST&lt;/span&gt;&lt;/div&gt;&lt;div style=&quot;text-align: justify&quot;&gt;&lt;/div&gt;" style="whiteSpace=wrap;html=1;aspect=fixed;" vertex="1" parent="1">
                    <mxGeometry x="270" y="360" width="160" height="160" as="geometry"/>
                </mxCell>
            </root>
        </mxGraphModel>
    </diagram>
</mxfile>